{"title":"And.Justice.for.All.1979.BRRIP.XVID.AC3-THC","uid":12314883,"size":1594431176,"categoryP":"video","categoryS":"movies","magnet":"?xt=urn:btih:667b23705ee39104b896951c0393f1684f4b5d1a&amp;dn=And.Justice.for.All.1979.BRRIP.XVID.AC3-THC&amp;tr=udp%3A%2F%2Ftracker.openbittorrent.com%3A80&amp;tr=udp%3A%2F%2Fopen.demonii.com%3A1337&amp;tr=udp%3A%2F%2Ftracker.coppersurfer.tk%3A6969&amp;tr=udp%3A%2F%2Fexodus.desync.com%3A6969","seeders":0,"leechers":1,"uploader":"nicukent","files":3,"time":1440974317,"description":" &lt;a href=&quot;http://i.imgur.com/Br0M7aI.jpg&quot; rel=&quot;nofollow&quot; target=&quot;_NEW&quot;&gt;http://i.imgur.com/Br0M7aI.jpg&lt;/a&gt;\n\n\nGeneral\nComplete name                    : And.Justice.for.All.1979.BRRIP.XVID.AC3-THC.avi\nFormat                           : AVI\nFormat/Info                      : Audio Video Interleave\nFile size                        : 1.45 GiB\nDuration                         : 1h 59mn\nOverall bit rate                 : 1 743 Kbps\n\nVideo\nID                               : 0\nFormat                           : MPEG-4 Visual\nFormat profile                   : Advanced Simple@L5\nFormat settings, BVOP            : Yes\nFormat settings, QPel            : No\nFormat settings, GMC             : No warppoints\nFormat settings, Matrix          : Default (H.263)\nMuxing mode                      : Packed bitstream\nCodec ID                         : XVID\nCodec ID/Hint                    : XviD\nDuration                         : 1h 59mn\nBit rate                         : 1 287 Kbps\nWidth                            : 720 pixels\nHeight                           : 400 pixels\nDisplay aspect ratio             : 16:9\nFrame rate                       : 23.976 fps\nColor space                      : YUV\nChroma subsampling               : 4:2:0\nBit depth                        : 8 bits\nScan type                        : Progressive\nBits/(Pixel*Frame)               : 0.186\nStream size                      : 1.07 GiB (74%)\nWriting library                  : XviD 1.2.1 (UTC 2008-12-04)\n\nAudio\nID                               : 1\nFormat                           : AC-3\nFormat/Info                      : Audio Coding 3\nMode extension                   : CM (complete main)\nCodec ID                         : 2000\nDuration                         : 1h 59mn\nBit rate mode                    : Constant\nBit rate                         : 448 Kbps\nChannel(s)                       : 6 channels\nChannel positions                : Front: L C R, Side: L R, LFE\nSampling rate                    : 48.0 KHz\nBit depth                        : 16 bits\nStream size                      : 382 MiB (26%)\nAlignment                        : Aligned on interleaves\nInterleave, duration             : 64 ms (1.53 video frames)\nInterleave, preload duration     : 192 ms\nTitle                            : T2_Audio - English\n\n\nFor more visit...: http://www.scenexpress.org\n\n &lt;a href=&quot;\nhttp://someimage.com/rZVITBD&quot; rel=&quot;nofollow&quot; target=&quot;_NEW&quot;&gt;\nhttp://someimage.com/rZVITBD&lt;/a&gt; &lt;a href=&quot;\nhttp://someimage.com/0tEJiuQ&quot; rel=&quot;nofollow&quot; target=&quot;_NEW&quot;&gt;\nhttp://someimage.com/0tEJiuQ&lt;/a&gt; &lt;a href=&quot;\nhttp://someimage.com/x2NxVff&quot; rel=&quot;nofollow&quot; target=&quot;_NEW&quot;&gt;\nhttp://someimage.com/x2NxVff&lt;/a&gt; &lt;a href=&quot;\nhttp://someimage.com/YwtdbsF&quot; rel=&quot;nofollow&quot; target=&quot;_NEW&quot;&gt;\nhttp://someimage.com/YwtdbsF&lt;/a&gt;","torrent":{"xt":"urn:btih:667b23705ee39104b896951c0393f1684f4b5d1a","amp;dn":"And.Justice.for.All.1979.BRRIP.XVID.AC3-THC","amp;tr":["udp%3A%2F%2Ftracker.openbittorrent.com%3A80","udp%3A%2F%2Fopen.demonii.com%3A1337","udp%3A%2F%2Ftracker.coppersurfer.tk%3A6969","udp%3A%2F%2Fexodus.desync.com%3A6969"],"infoHash":"667b23705ee39104b896951c0393f1684f4b5d1a","infoHashBuffer":{"type":"Buffer","data":[102,123,35,112,94,227,145,4,184,150,149,28,3,147,241,104,79,75,93,26]},"announce":[],"urlList":[]}}